<svg xmlns="http://www.w3.org/2000/svg" height="625" width="655" version="1.1" xmlns:xlink="http://www.w3.org/1999/xlink">
 <g transform="translate(0,-143)">
  <rect style="fill:#f9f9f9" height="625" width="655" y="143" x="0"/>
  <rect style="fill:#414141" transform="matrix(-.72060 -.69336 -.69336 .72060 0 0)" height="70" width="5" y="269.64" x="-510.67"/>
  <rect style="fill:#414141" transform="matrix(-.93301 .35986 .35986 .93301 0 0)" height="70" width="5" y="411.69" x="-7.5475"/>
  <text style="letter-spacing:0px;fill-opacity:.90196;word-spacing:0px;font-family:sans-serif;line-height:0%;fill:#2d2d2d" xml:space="preserve" transform="scale(.95808 1.0437)" y="208.86241" x="340.69839"><tspan x="340.69839" style="font-size:37.5px;font-weight:bold;fill-opacity:.90196;text-anchor:middle;text-align:center;font-family:sans-serif;line-height:120.00000477%;fill:#2d2d2d" y="208.86241">What&apos;s your gender?</tspan></text>
  <text style="letter-spacing:0px;fill-opacity:.90196;word-spacing:0px;font-family:sans-serif;line-height:0%;fill:#676767" xml:space="preserve" transform="scale(.95808 1.0437)" y="247.18579" x="41.749973"><tspan x="41.749973" style="font-size:11.859px;font-weight:bold;fill-opacity:.90196;font-family:sans-serif;line-height:120.00000477%;fill:#676767" y="247.18579">Last year the gender question was a text entry field. &quot;Attack Helicopter&quot; was the third</tspan><tspan x="41.749973" style="font-size:11.859px;font-weight:bold;fill-opacity:.90196;font-family:sans-serif;line-height:120.00000477%;fill:#676767" y="261.41605">most common and iwas otherwise rife with trolling. This year I made it a radio button.</tspan></text>
  <rect style="fill:#414141" transform="rotate(50.16)" height="70" width="5" y="-138.21" x="627.1"/>
  <text style="letter-spacing:0px;fill-opacity:.90196;word-spacing:0px;font-family:sans-serif;line-height:0%;fill:#2d2d2d" xml:space="preserve" transform="scale(.95916 1.0426)" y="372.15317" x="532.96759"><tspan x="532.96759" style="font-size:24.787px;font-weight:bold;fill-opacity:.90196;font-family:sans-serif;line-height:0%;fill:#2d2d2d" y="372.15317">Male</tspan></text>
  <text style="letter-spacing:0px;word-spacing:0px;font-family:sans-serif;line-height:0%;fill:#f9f9f9" xml:space="preserve" transform="scale(.95916 1.0426)" y="506.43524" x="166.81303"><tspan x="166.81303" style="font-size:24.787px;font-weight:bold;font-family:sans-serif;line-height:0%;fill:#f9f9f9" y="506.43524"> </tspan></text>
  <text style="letter-spacing:0px;fill-opacity:.90196;word-spacing:0px;font-family:sans-serif;line-height:0%;fill:#2d2d2d" xml:space="preserve" transform="scale(-.95916 1.0426)" y="525.61841" x="-448.31006"><tspan x="-448.31006" style="font-size:24.787px;font-weight:bold;fill-opacity:.90196;font-family:sans-serif;line-height:0%;fill:#2d2d2d" y="525.61841"> </tspan></text>
  <circle style="fill:#80b3ff" cx="-507.14" transform="rotate(203.2)" cy="-329.92" r="170"/>
  <path style="fill:#ff5353;fill-opacity:.80392" d="m-337.14-329.92a170 170 0 0 1 -164.83 169.92 170 170 0 0 1 -174.86 -159.58 170 170 0 0 1 154.19 -179.63 170 170 0 0 1 184.24 148.65l-168.74 20.638z" transform="rotate(203.2)"/>
  <path style="fill:#ffbf2b;fill-opacity:.90196" d="m-337.14-329.92a170 170 0 0 1 -136.11 166.59 170 170 0 0 1 -190.38 -100.16 170 170 0 0 1 60.197 -206.53 170 170 0 0 1 214.38 17.814l-118.09 122.29z" transform="rotate(203.2)"/>
  <text style="letter-spacing:0px;fill-opacity:.90196;word-spacing:0px;font-family:sans-serif;line-height:0%;fill:#2d2d2d" xml:space="preserve" transform="scale(.95916 1.0426)" y="334.90228" x="114.69207"><tspan x="114.69207" style="font-size:24.787px;font-weight:bold;fill-opacity:.90196;font-family:sans-serif;line-height:0%;fill:#2d2d2d" y="334.90228">Other</tspan></text>
  <text style="letter-spacing:0px;fill-opacity:.90196;word-spacing:0px;font-family:sans-serif;line-height:0%;fill:#2d2d2d" xml:space="preserve" transform="scale(.95916 1.0426)" y="606.44861" x="127.82168"><tspan x="127.82168" style="font-size:24.787px;font-weight:bold;fill-opacity:.90196;text-anchor:middle;text-align:center;font-family:sans-serif;line-height:0%;fill:#2d2d2d" y="606.44861">Female</tspan></text>
  <text style="letter-spacing:0px;fill-opacity:.90196;word-spacing:0px;font-family:sans-serif;line-height:0%;fill:#2d2d2d" xml:space="preserve" transform="scale(.95916 1.0426)" y="550.14166" x="296.00281"><tspan x="296.00281" style="font-size:25px;font-weight:bold;fill-opacity:1;font-family:sans-serif;line-height:0%;fill:#f9f9f9" y="550.14166">2245, 95.5%</tspan></text>
  <text style="letter-spacing:0px;word-spacing:0px;font-family:sans-serif;line-height:0%;fill:#404040" xml:space="preserve" transform="scale(.95916 1.0426)" y="351.2576" x="117.83592"><tspan x="117.83592" style="font-size:13.333px;font-weight:bold;font-family:sans-serif;line-height:0%;fill:#404040" y="351.2576">46, 1.94%</tspan></text>
  <text style="letter-spacing:0px;fill-opacity:.90196;word-spacing:0px;font-family:sans-serif;line-height:0%;fill:#2d2d2d" xml:space="preserve" transform="scale(.95916 1.0426)" y="489.87027" x="185.65277"><tspan x="185.65277" style="font-size:18.75px;font-weight:bold;fill-opacity:1;font-family:sans-serif;line-height:0%;fill:#f9f9f9" y="489.87027">84, 3.54%</tspan></text>
 </g>
</svg>
