<svg xmlns="http://www.w3.org/2000/svg" height="768" width="640" version="1.1">
 <rect style="fill:#f9f9f9" height="768" width="640" y="0" x="0"/>
 <rect style="opacity:.9;fill:#c5c5c5" transform="rotate(-90)" height="525" width="5" y="50" x="-324.8"/>
 <rect style="opacity:.9;fill:#c5c5c5" transform="rotate(-90)" height="525" width="5" y="50" x="-408.1"/>
 <rect style="opacity:.9;fill:#c5c5c5" transform="rotate(-90)" height="525" width="5" y="50" x="-491.4"/>
 <text style="letter-spacing:0px;fill-opacity:.90196;word-spacing:0px;font-family:sans-serif;line-height:0%;fill:#2d2d2d" xml:space="preserve" transform="matrix(.59724 -.79068 .80528 .60827 0 0)" y="523.05438" x="-550.80554"><tspan x="-550.80554" style="font-size:31.25px;font-weight:bold;fill-opacity:.90196;font-family:sans-serif;line-height:0%;fill:#2d2d2d" y="523.05438">2014</tspan></text>
 <text style="letter-spacing:0px;fill-opacity:.90196;word-spacing:0px;font-family:sans-serif;line-height:0%;fill:#2d2d2d" xml:space="preserve" transform="scale(.95808 1.0437)" y="93.603401" x="31.207577"><tspan x="31.207577" style="font-size:60px;font-weight:bold;fill-opacity:.90196;font-family:sans-serif;line-height:0%;fill:#2d2d2d" y="93.603401">Previous surveys?</tspan></text>
 <text style="letter-spacing:0px;fill-opacity:.90196;word-spacing:0px;font-family:sans-serif;line-height:0%;fill:#676767" xml:space="preserve" transform="scale(.95808 1.0437)" y="130.09041" x="33.922901"><tspan x="33.922901" style="font-size:17.333px;font-weight:bold;fill-opacity:.90196;font-family:sans-serif;line-height:120.00000477%;fill:#676767" y="130.09041">We ask each year if people did the</tspan><tspan x="33.922901" style="font-size:17.333px;font-weight:bold;fill-opacity:.90196;font-family:sans-serif;line-height:120.00000477%;fill:#676767" y="152.59041">previous surveys. Note the turnouts</tspan><tspan x="33.922901" style="font-size:17.333px;font-weight:bold;fill-opacity:.90196;font-family:sans-serif;line-height:120.00000477%;fill:#676767" y="175.09041">aren&apos;t directly comparable because</tspan><tspan x="33.922901" style="font-size:17.333px;font-weight:bold;fill-opacity:.90196;font-family:sans-serif;line-height:120.00000477%;fill:#676767" y="197.59041">different years rand for different</tspan><tspan x="33.922901" style="font-size:17.333px;font-weight:bold;fill-opacity:.90196;font-family:sans-serif;line-height:120.00000477%;fill:#676767" y="220.09041">lengths of time.</tspan></text>
 <rect style="opacity:.9;fill:#c5c5c5" transform="rotate(-90)" height="525" width="5" y="50" x="-574.7"/>
 <rect style="opacity:.9;fill:#803300" transform="rotate(90)" height="50" width="6" y="-110" x="652"/>
 <rect style="opacity:.9;fill:#fee2d8" transform="rotate(90)" height="50" width="166.8" y="-160" x="491.2"/>
 <rect style="opacity:.9;fill:#2d2d2f;fill-opacity:.94118" transform="rotate(-90)" height="530" width="10" y="50" x="-668"/>
 <text style="letter-spacing:0px;fill-opacity:.90196;word-spacing:0px;font-family:sans-serif;line-height:0%;fill:#2d2d2d" xml:space="preserve" transform="scale(.99089 1.0092)" y="573.396" x="584.24457"><tspan x="584.24457" style="font-size:13.333px;font-weight:bold;fill-opacity:.90196;font-family:sans-serif;line-height:0%;fill:#2d2d2d" y="573.396">500</tspan></text>
 <text style="letter-spacing:0px;fill-opacity:.90196;word-spacing:0px;font-family:sans-serif;line-height:0%;fill:#2d2d2d" xml:space="preserve" transform="scale(.99089 1.0092)" y="489.37183" x="583.1026"><tspan x="583.1026" style="font-size:13.333px;font-weight:bold;fill-opacity:.90196;font-family:sans-serif;line-height:0%;fill:#2d2d2d" y="489.37183">1000</tspan></text>
 <rect style="opacity:.9;fill:#f60" transform="rotate(90)" height="50" width="38.17" y="-110" x="613.83"/>
 <rect style="opacity:.9;fill:#ffb380" transform="rotate(90)" height="50" width="357.83" y="-110" x="256"/>
 <rect style="opacity:.9;fill:#8b4618" transform="rotate(90)" height="50" width="20.3" y="-260" x="637.7"/>
 <rect style="opacity:.9;fill:#fee2d8" transform="rotate(90)" height="50" width="203.7" y="-310" x="454.3"/>
 <rect style="opacity:.9;fill:#fe7418" transform="rotate(90)" height="50" width="50" y="-260" x="587.7"/>
 <rect style="opacity:.9;fill:#feb98b" transform="rotate(90)" height="50" width="331.7" y="-260" x="256"/>
 <rect style="opacity:.9;fill:#8b4618" transform="rotate(90)" height="50" width="79.2" y="-410" x="578.8"/>
 <rect style="opacity:.9;fill:#fe7418" transform="rotate(90)" height="50" width="55.8" y="-410" x="523"/>
 <rect style="opacity:.9;fill:#feb98b" transform="rotate(90)" height="50" width="267" y="-410" x="256"/>
 <rect style="opacity:.9;fill:#fee2d8" transform="rotate(90)" height="50" width="342.6" y="-460" x="315.4"/>
 <rect style="opacity:.9;fill:#fee2d8" transform="rotate(90)" height="50" width="402.8" y="-560" x="255.2"/>
 <text style="letter-spacing:0px;fill-opacity:.90196;word-spacing:0px;font-family:sans-serif;line-height:0%;fill:#2d2d2d" xml:space="preserve" transform="matrix(.59724 -.79068 .80528 .60827 0 0)" y="641.26001" x="-459.86859"><tspan y="641.26001" x="-459.86859" style="font-size:31.25px;font-weight:bold;fill-opacity:.90196;font-family:sans-serif;line-height:0%;fill:#2d2d2d">2015</tspan></text>
 <text style="letter-spacing:0px;fill-opacity:.90196;word-spacing:0px;font-family:sans-serif;line-height:0%;fill:#2d2d2d" xml:space="preserve" transform="matrix(.59724 -.79068 .80528 .60827 0 0)" y="761.20581" x="-367.5939"><tspan x="-367.5939" style="font-size:31.25px;font-weight:bold;fill-opacity:.90196;font-family:sans-serif;line-height:0%;fill:#2d2d2d" y="761.20581">2016</tspan></text>
 <text style="letter-spacing:0px;fill-opacity:.90196;word-spacing:0px;font-family:sans-serif;line-height:0%;fill:#2d2d2d" xml:space="preserve" transform="matrix(.59724 -.79068 .80528 .60827 0 0)" y="859.32898" x="-292.10757"><tspan y="859.32898" x="-292.10757" style="font-size:31.25px;font-weight:bold;fill-opacity:.90196;font-family:sans-serif;line-height:0%;fill:#2d2d2d">2017</tspan></text>
 <text style="letter-spacing:0px;fill-opacity:.90196;word-spacing:0px;font-family:sans-serif;line-height:0%;fill:#2d2d2d" xml:space="preserve" transform="scale(.99089 1.0092)" y="406.7428" x="583.20404"><tspan x="583.20404" style="font-size:13.333px;font-weight:bold;fill-opacity:.90196;font-family:sans-serif;line-height:0%;fill:#2d2d2d" y="406.7428">1500</tspan></text>
 <text style="letter-spacing:0px;fill-opacity:.90196;word-spacing:0px;font-family:sans-serif;line-height:0%;fill:#2d2d2d" xml:space="preserve" transform="scale(.99089 1.0092)" y="323.61404" x="582.13184"><tspan x="582.13184" style="font-size:13.333px;font-weight:bold;fill-opacity:.90196;font-family:sans-serif;line-height:0%;fill:#2d2d2d" y="323.61404">2000</tspan></text>
 <rect style="opacity:.9;fill:#8b4618" transform="rotate(90)" height="20" width="20" y="-443.8" x="128"/>
 <text style="letter-spacing:0px;fill-opacity:.90196;word-spacing:0px;font-family:sans-serif;line-height:0%;fill:#676767" xml:space="preserve" transform="scale(.95808 1.0437)" y="138.22002" x="468.87299"><tspan x="468.87299" style="font-size:18.75px;font-weight:bold;fill-opacity:.90196;font-family:sans-serif;line-height:120.00000477%;fill:#676767" y="138.22002">Yes</tspan></text>
 <rect style="opacity:.9;fill:#f60" transform="rotate(90)" height="20" width="20" y="-443.8" x="148"/>
 <rect style="opacity:.9;fill:#ffb380" transform="rotate(90)" height="20" width="20" y="-443.8" x="168"/>
 <rect style="opacity:.9;fill:#fee2d8" transform="rotate(90)" height="20" width="20" y="-443.8" x="188"/>
 <text style="letter-spacing:0px;fill-opacity:.90196;word-spacing:0px;font-family:sans-serif;line-height:0%;fill:#676767" xml:space="preserve" transform="scale(.95808 1.0437)" y="157.62123" x="470.17761"><tspan x="470.17761" style="font-size:18.75px;font-weight:bold;fill-opacity:.90196;font-family:sans-serif;line-height:120.00000477%;fill:#676767" y="157.62123">Can&apos;t remember</tspan></text>
 <text style="letter-spacing:0px;fill-opacity:.90196;word-spacing:0px;font-family:sans-serif;line-height:0%;fill:#676767" xml:space="preserve" transform="scale(.95808 1.0437)" y="176.78291" x="471.74316"><tspan x="471.74316" style="font-size:18.75px;font-weight:bold;fill-opacity:.90196;font-family:sans-serif;line-height:120.00000477%;fill:#676767" y="176.78291">No</tspan></text>
 <text style="letter-spacing:0px;fill-opacity:.90196;word-spacing:0px;font-family:sans-serif;line-height:0%;fill:#676767" xml:space="preserve" transform="scale(.95808 1.0437)" y="196.90269" x="470.17761"><tspan x="470.17761" style="font-size:18.75px;font-weight:bold;fill-opacity:.90196;font-family:sans-serif;line-height:120.00000477%;fill:#676767" y="196.90269">Actual turnout</tspan></text>
</svg>
