<?xml version="1.0" encoding="UTF-8" standalone="no"?>
<!-- Created with Inkscape (http://www.inkscape.org/) -->

<svg
   xmlns:dc="http://purl.org/dc/elements/1.1/"
   xmlns:cc="http://creativecommons.org/ns#"
   xmlns:rdf="http://www.w3.org/1999/02/22-rdf-syntax-ns#"
   xmlns:svg="http://www.w3.org/2000/svg"
   xmlns="http://www.w3.org/2000/svg"
   xmlns:xlink="http://www.w3.org/1999/xlink"
   xmlns:sodipodi="http://sodipodi.sourceforge.net/DTD/sodipodi-0.dtd"
   xmlns:inkscape="http://www.inkscape.org/namespaces/inkscape"
   width="1024px"
   height="768px"
   id="svg3037"
   version="1.1"
   inkscape:version="0.48.4 r9939"
   sodipodi:docname="os3-small.svg"
   inkscape:export-filename="/home/josh/Desktop/UnixPorn/WinKDE.png"
   inkscape:export-xdpi="90"
   inkscape:export-ydpi="90">
  <defs
     id="defs3039">
    <linearGradient
       x2="0"
       gradientUnits="userSpaceOnUse"
       y2="268.33"
       y1="279.1"
       id="1"
       xlink:href="#0"
       gradientTransform="matrix(1.10526,0,0,1.10526,-134.28026,-295.76492)" />
    <linearGradient
       id="0">
      <stop
         id="stop5956"
         stop-color="#dcdcdc" />
      <stop
         id="stop5958"
         stop-color="#f9f9f9"
         offset="1" />
    </linearGradient>
  </defs>
  <sodipodi:namedview
     id="base"
     pagecolor="#ffffff"
     bordercolor="#666666"
     borderopacity="1.0"
     inkscape:pageopacity="0.0"
     inkscape:pageshadow="2"
     inkscape:zoom="1.4142136"
     inkscape:cx="385.46406"
     inkscape:cy="218.516"
     inkscape:current-layer="layer1"
     inkscape:document-units="px"
     showgrid="true"
     inkscape:window-width="1280"
     inkscape:window-height="998"
     inkscape:window-x="0"
     inkscape:window-y="0"
     inkscape:window-maximized="1">
    <inkscape:grid
       type="xygrid"
       id="grid3052" />
  </sodipodi:namedview>
  <metadata
     id="metadata3042">
    <rdf:RDF>
      <cc:Work
         rdf:about="">
        <dc:format>image/svg+xml</dc:format>
        <dc:type
           rdf:resource="http://purl.org/dc/dcmitype/StillImage" />
        <dc:title />
      </cc:Work>
    </rdf:RDF>
  </metadata>
  <g
     id="layer1"
     inkscape:label="Layer 1"
     inkscape:groupmode="layer">
    <rect
       style="fill:#f9f9f9;fill-opacity:1;stroke:none"
       id="rect4494"
       width="655"
       height="625"
       x="0"
       y="143" />
    <rect
       style="fill:#414141;fill-opacity:1;stroke:none"
       id="rect3918"
       width="5"
       height="70"
       x="-415"
       y="625.83557"
       transform="scale(-1,1)" />
    <text
       xml:space="preserve"
       style="font-size:31.66812515px;font-style:normal;font-weight:normal;line-height:0%;letter-spacing:0px;word-spacing:0px;fill:#2d2d2d;fill-opacity:0.90196078;stroke:none;font-family:Sans"
       x="41.749973"
       y="240.32167"
       id="use3057-3"
       sodipodi:linespacing="0%"
       transform="scale(0.95808448,1.0437493)"><tspan
         sodipodi:role="line"
         id="tspan3061-1"
         x="41.749973"
         y="240.32167"
         style="font-size:55px;font-weight:bold;line-height:0%;fill:#2d2d2d;fill-opacity:0.90196078">Do you use KDE?*</tspan></text>
    <text
       xml:space="preserve"
       style="font-size:6.82796288px;font-style:normal;font-weight:normal;line-height:120.00000477%;letter-spacing:0px;word-spacing:0px;fill:#676767;fill-opacity:0.90196078;stroke:none;font-family:Sans"
       x="41.749973"
       y="278.64505"
       id="use3057-3-7"
       sodipodi:linespacing="120%"
       transform="scale(0.95808448,1.0437493)"><tspan
         sodipodi:role="line"
         x="41.749973"
         y="278.64505"
         style="font-size:11.85854626px;font-weight:bold;line-height:120.00000477%;fill:#676767;fill-opacity:0.90196078"
         id="tspan3098">* - this was intended as a joke question and so will not at all be representative of</tspan><tspan
         sodipodi:role="line"
         x="41.749973"
         y="292.87531"
         style="font-size:11.85854626px;font-weight:bold;line-height:120.00000477%;fill:#676767;fill-opacity:0.90196078"
         id="tspan3102">the number that actually use KDE on Windows. It was also an optional question.</tspan></text>
    <rect
       style="fill:#414141;fill-opacity:1;stroke:none"
       id="rect3918-6"
       width="5"
       height="70"
       x="594.29932"
       y="-98.898949"
       transform="matrix(0.64063926,0.767842,-0.767842,0.64063926,0,0)" />
    <text
       xml:space="preserve"
       style="font-size:31.3980751px;font-style:normal;font-weight:normal;line-height:0%;letter-spacing:0px;word-spacing:0px;fill:#2d2d2d;fill-opacity:0.90196078;stroke:none;font-family:Sans"
       x="135.5356"
       y="691.39496"
       id="use3057-2"
       sodipodi:linespacing="0%"
       transform="scale(0.95915763,1.0425815)"><tspan
         sodipodi:role="line"
         id="tspan3061-9"
         x="135.5356"
         y="691.39496"
         style="font-size:24.78681183px;font-weight:bold;line-height:0%;fill:#2d2d2d;fill-opacity:0.90196078">As a matter of fact, I do!</tspan></text>
    <text
       xml:space="preserve"
       style="font-size:31.3980751px;font-style:normal;font-weight:normal;line-height:0%;letter-spacing:0px;word-spacing:0px;fill:#2d2d2d;fill-opacity:0.90196078;stroke:none;font-family:Sans"
       x="479.58749"
       y="374.87292"
       id="use3057-2-5"
       sodipodi:linespacing="0%"
       transform="scale(0.95915763,1.0425815)"><tspan
         sodipodi:role="line"
         id="tspan3061-9-7"
         x="479.58749"
         y="374.87292"
         style="font-size:24.78681183px;font-weight:bold;line-height:0%;fill:#2d2d2d;fill-opacity:0.90196078">What‽</tspan></text>
    <rect
       style="color:#000000;fill:#80cc28"
       transform="matrix(0,1,-1,0,0,0)"
       width="24.730095"
       height="24.730038"
       x="155.83557"
       y="-639.96094"
       rx="0"
       id="rect5967" />
    <rect
       style="color:#000000;fill:#f1511b"
       y="155.83557"
       x="585.00012"
       height="24.730095"
       width="24.730038"
       rx="0"
       id="rect5969" />
    <rect
       style="color:#000000;fill:#00adef"
       transform="matrix(0,1,-1,0,0,0)"
       width="24.730095"
       height="24.730038"
       x="186.10547"
       y="-609.73004"
       rx="0"
       id="rect5971" />
    <rect
       style="color:#000000;fill:#fbbc09"
       y="186.10547"
       x="615.27002"
       height="24.730095"
       width="24.730038"
       rx="0"
       id="rect5973" />
    <text
       xml:space="preserve"
       style="font-size:31.3980751px;font-style:normal;font-weight:normal;line-height:0%;letter-spacing:0px;word-spacing:0px;fill:#f9f9f9;fill-opacity:1;stroke:none;font-family:Sans"
       x="166.81303"
       y="506.43524"
       id="use3057-2-5-5"
       sodipodi:linespacing="0%"
       transform="scale(0.95915763,1.0425815)"><tspan
         sodipodi:role="line"
         id="tspan3061-9-7-7"
         x="166.81303"
         y="506.43524"
         style="font-size:24.78681183px;font-weight:bold;line-height:0%;fill:#f9f9f9;fill-opacity:1" /></text>
    <text
       xml:space="preserve"
       style="font-size:31.3980751px;font-style:normal;font-weight:normal;line-height:0%;letter-spacing:0px;word-spacing:0px;fill:#2d2d2d;fill-opacity:0.90196078;stroke:none;font-family:Sans"
       x="-448.31006"
       y="525.61841"
       id="use3057-2-5-7"
       sodipodi:linespacing="0%"
       transform="scale(-0.95915763,1.0425815)"><tspan
         sodipodi:role="line"
         id="tspan3061-9-7-5"
         x="-448.31006"
         y="525.61841"
         style="font-size:24.78681183px;font-weight:bold;line-height:0%;fill:#2d2d2d;fill-opacity:0.90196078" /></text>
    <path
       style="fill:#003399;fill-opacity:1;stroke:none"
       d="m 265.6,333 c -93.88841,0 -170,76.11159 -170,170 0,93.88841 76.11159,170 170,170 26.98894,0 52.49081,-6.30714 75.15625,-17.5 -0.92043,0.45358 -1.85023,0.87439 -2.78125,1.3125 L 265.6,503 l 170,0 c 0,-93.88841 -76.11159,-170 -170,-170 z m 75.15625,322.5 c 1.80263,-0.89019 3.60918,-1.79847 5.375,-2.75 -1.76566,0.94908 -3.56781,1.85944 -5.375,2.75 z m 94.125,-136.75 c -0.0804,0.86594 -0.18779,1.73074 -0.28125,2.59375 0.0928,-0.86499 0.20143,-1.72492 0.28125,-2.59375 z m -1.5,11.625 c -0.16204,0.99489 -0.32058,1.97863 -0.5,2.96875 0.17718,-0.98321 0.33981,-1.97974 0.5,-2.96875 z m -1.6875,8.875 c -1.71034,7.83981 -3.94865,15.51692 -6.71875,22.96875 2.76201,-7.4289 5.00737,-15.09076 6.71875,-22.96875 z m -6.71875,22.96875 c -1.03879,2.79444 -2.16216,5.55118 -3.34375,8.28125 1.17973,-2.72325 2.30462,-5.48633 3.34375,-8.28125 z M 421.63125,570.5 c -1.57546,3.6401 -3.27145,7.23543 -5.09375,10.75 1.8225,-3.5087 3.51405,-7.10348 5.09375,-10.75 z m -7.9375,15.96875 c -0.48567,0.86176 -0.96821,1.70947 -1.46875,2.5625 0.49856,-0.84798 0.98457,-1.70519 1.46875,-2.5625 z m -1.46875,2.5625 c -1.00107,1.70605 -2.03399,3.39258 -3.09375,5.0625 1.06259,-1.67074 2.08857,-3.35282 3.09375,-5.0625 z m -3.09375,5.0625 c -0.43693,0.68849 -0.86572,1.38035 -1.3125,2.0625 0.44641,-0.68016 0.87563,-1.3756 1.3125,-2.0625 z M 400.475,606.5 c -0.53938,0.70298 -1.10577,1.39905 -1.65625,2.09375 0.55432,-0.6984 1.11275,-1.38649 1.65625,-2.09375 z m -41.5,38.5625 c -1.52434,1.00154 -3.06349,1.98223 -4.625,2.9375 1.55967,-0.95656 3.09909,-1.93256 4.625,-2.9375 z m -7.4375,4.625 c -0.87683,0.51349 -1.73708,1.00119 -2.625,1.5 0.87801,-0.49464 1.75675,-0.9903 2.625,-1.5 z"
       id="use3026"
       inkscape:connector-curvature="0" />
    <text
       xml:space="preserve"
       style="font-size:31.3980751px;font-style:normal;font-weight:normal;line-height:0%;letter-spacing:0px;word-spacing:0px;fill:#2d2d2d;fill-opacity:0.90196078;stroke:none;font-family:Sans"
       x="198.09048"
       y="458.47736"
       id="use3057-2-5-3"
       sodipodi:linespacing="0%"
       transform="scale(0.95915763,1.0425815)"><tspan
         sodipodi:role="line"
         id="tspan3061-9-7-74"
         x="198.09048"
         y="458.47736"
         style="font-size:24.78681183px;font-weight:bold;line-height:0%;fill:#f9f9f9;fill-opacity:1">32, 82%</tspan></text>
    <path
       transform="matrix(4,0,0,4.8571429,-534.99936,-1750.1409)"
       d="m 250,468 a 42.5,35 0 0 1 -24.40438,31.66895 L 207.5,468 z"
       sodipodi:ry="35"
       sodipodi:rx="42.5"
       sodipodi:cy="468"
       sodipodi:cx="207.5"
       id="use3020-4"
       style="fill:#3e9ade;fill-opacity:1;stroke:none"
       sodipodi:type="arc"
       sodipodi:start="0"
       sodipodi:end="1.1309734" />
    <text
       xml:space="preserve"
       style="font-size:31.3980751px;font-style:normal;font-weight:normal;line-height:0%;letter-spacing:0px;word-spacing:0px;fill:#2d2d2d;fill-opacity:0.90196078;stroke:none;font-family:Sans"
       x="364.90353"
       y="554.39313"
       id="use3057-2-5-3-9"
       sodipodi:linespacing="0%"
       transform="scale(0.95915763,1.0425815)"><tspan
         sodipodi:role="line"
         id="tspan3061-9-7-74-8"
         x="364.90353"
         y="554.39313"
         style="font-size:24.78681183px;font-weight:bold;line-height:0%;fill:#f9f9f9;fill-opacity:1">7, 18%</tspan></text>
  </g>
</svg>
